<svg width="308" height="203" viewBox="0 0 308 203" fill="none" xmlns="http://www.w3.org/2000/svg">
<path d="M60.5364 58.689L0.752686 116.437L16.5946 116.64L32.4364 116.844L32.5586 159.482L32.6401 202.162H52.3915H72.143V180.374C72.143 155.206 72.3059 156.55 68.4777 153.74C62.817 149.627 59.3962 142.622 59.3554 135.17C59.3147 129.672 60.6993 125.07 63.5908 121.161L64.894 119.409L66.8488 123.971C69.0886 129.183 69.9031 130.201 72.7538 131.545C76.5819 133.337 80.4915 132.686 83.5459 129.753C85.0527 128.287 85.6635 127.31 86.193 125.477C87.0075 122.627 86.8446 121.568 84.8898 116.314C84.116 114.237 83.5866 112.405 83.7088 112.242C84.5233 111.468 90.8763 114.156 93.727 116.518C99.3063 121.079 102.279 127.554 102.279 134.966C102.279 139.242 101.546 142.174 99.2248 147.184C96.985 152.03 95.5189 155.695 94.6637 158.587C94.0935 160.501 93.9714 163.799 93.8492 181.474L93.6863 202.162H105.048H116.411L117.062 199.393C118.773 192.347 118.895 187.42 117.551 178.745C116.533 171.903 116.859 166.283 118.65 159.686C119.587 156.224 120.117 155.695 123.171 155.166L124.678 154.881V111.387V67.8928L123.456 61.947L122.275 56.0012L123.375 47.9377L124.515 39.8742L127.854 39.752C130.379 39.6706 131.194 39.752 131.194 40.1593C131.194 40.4444 131.723 44.1503 132.375 48.3857L133.556 56.0419L132.782 61.0918C132.049 65.8565 132.008 68.4629 132.09 110.572L132.212 155.084L133.637 155.451C135.673 155.939 136.284 156.672 137.058 159.32C139.054 166.283 139.339 171.333 138.117 179.763C137.058 187.216 137.18 192.592 138.524 198.415L139.42 202.162H154.855H170.289L170.208 172.27C170.086 142.622 170.086 142.337 169.23 141.197C166.909 138.102 163.488 137.328 160.678 139.324C159.172 140.423 158.846 140.464 153.47 140.586C145.692 140.79 146.262 141.564 146.262 130.69C146.262 122.83 146.343 122.016 146.995 121.405C147.606 120.835 148.665 120.713 152.941 120.713C157.909 120.713 158.153 120.753 159.212 121.731C161.656 124.011 165.321 124.093 168.742 121.934L170.859 120.672L178.801 120.794C186.498 120.916 186.864 120.957 189.145 122.016C194.765 124.663 200.1 130.609 203.561 138.143C204.335 139.772 204.905 141.441 204.824 141.808C204.539 143.193 202.055 142.541 197.371 139.853C192.118 136.84 189.104 135.373 188.127 135.373C187.027 135.373 185.928 136.84 185.113 139.364C184.421 141.523 184.38 143.926 184.217 171.903L184.095 202.162H204.498H224.86V197.927C224.86 188.56 223.476 183.591 218.467 175.161C212.032 164.329 210.851 160.867 211.706 155.369C212.561 149.912 215.494 145.514 220.462 142.256C222.865 140.708 228.77 138.346 229.177 138.754C229.299 138.876 228.444 142.5 227.263 146.776C225.593 152.885 225.227 154.799 225.512 155.654C225.838 156.591 226.449 156.958 230.073 158.139C232.394 158.872 234.349 159.442 234.431 159.36C234.512 159.238 235.693 155.329 237.078 150.645C238.462 145.921 239.725 141.93 239.928 141.767C240.295 141.36 242.657 144.17 244.612 147.387C246.689 150.849 247.707 154.433 248.033 159.36L248.277 163.636L251.616 164.614L254.915 165.591L253.327 168.198C247.177 178.297 245.141 184.813 244.571 196.745L244.286 202.162H265.544H286.762L286.68 175.284L286.558 148.405L296.902 148.324L307.206 148.202L268.395 111.835C247.055 91.8796 229.462 75.5083 229.259 75.5083C229.055 75.5083 225.756 78.5219 221.928 82.2278C215.127 88.8252 214.964 88.9474 214.15 88.2551C213.702 87.8478 192.525 68.0557 167.113 44.2318C141.66 20.4486 120.727 0.982208 120.605 0.982208C120.442 0.982208 93.4012 26.9645 60.5364 58.689Z" fill="white"/>
</svg>
